<?xml version="1.0" encoding="UTF-8"?>
<svg version="1.1" xmlns="http://www.w3.org/2000/svg" width="1024" height="1024">
<path d="M0 0 C337.92 0 675.84 0 1024 0 C1024 337.92 1024 675.84 1024 1024 C686.08 1024 348.16 1024 0 1024 C0 686.08 0 348.16 0 0 Z " fill="#FCFAF9" transform="translate(0,0)"/>
<path d="M0 0 C1.56170226 -0.00299759 3.12340379 -0.00640149 4.68510437 -0.01017761 C8.90239816 -0.01896238 13.11967161 -0.02135343 17.33697367 -0.0219934 C19.98012277 -0.02270723 22.62326681 -0.02484785 25.26641464 -0.02749062 C34.51143468 -0.0367269 43.75644035 -0.0408278 53.00146484 -0.04003906 C61.57987976 -0.03943925 70.15823159 -0.04997647 78.73663056 -0.06578273 C86.13320238 -0.07891915 93.52975375 -0.08422039 100.92633712 -0.08358365 C105.3298419 -0.08333039 109.73329059 -0.08608576 114.1367836 -0.0967617 C118.28520185 -0.10654565 122.43351158 -0.10645248 126.58193398 -0.09924507 C128.09102731 -0.09821177 129.60012778 -0.1004859 131.10920906 -0.10660553 C149.6396839 -0.17678875 168.60617782 1.53704051 185.33935547 10.14526367 C186.62712891 10.77368164 186.62712891 10.77368164 187.94091797 11.41479492 C212.95644205 24.20442202 231.50417235 48.80071075 240.27685547 75.14526367 C242.56285252 84.01216131 243.91123167 93.10047961 245.33935547 102.14526367 C245.66935547 68.48526367 245.99935547 34.82526367 246.33935547 0.14526367 C285.57659834 0.02435457 285.57659834 0.02435457 302.14013672 -0.0012207 C313.53357031 -0.01895529 324.92693689 -0.03969386 336.3203125 -0.08105469 C344.6215875 -0.11117576 352.92280762 -0.13036257 361.22413576 -0.13700181 C365.61014191 -0.14087607 369.99599123 -0.1498289 374.38194656 -0.1719265 C392.55085515 -0.25985775 410.41406132 -0.28252602 428.33935547 3.14526367 C429.12979374 3.29497934 429.92023201 3.44469501 430.73462296 3.59894753 C457.852275 8.83786192 479.13578996 23.70165359 498.33935547 43.14526367 C499.10634766 43.91483398 499.87333984 44.6844043 500.66357422 45.47729492 C515.33442572 60.87562667 525.51727044 80.99132326 531.77685547 101.20776367 C532.11088379 102.26495605 532.11088379 102.26495605 532.45166016 103.34350586 C536.82310571 118.59978349 537.82038813 134.36499916 537.67553711 150.14672852 C537.65174355 152.90825339 537.65503772 155.66881672 537.66162109 158.43041992 C537.58527702 206.38997749 520.41472652 248.9833317 486.53466797 282.95776367 C468.0820784 300.56023394 446.3164577 311.85446353 421.65185547 317.89526367 C420.7970459 318.10626709 419.94223633 318.31727051 419.06152344 318.53466797 C409.48315018 320.77268289 399.88254936 321.28898533 390.07299805 321.35400391 C389.11198181 321.36378769 388.15096558 321.37357147 387.16082764 321.38365173 C384.01852746 321.41327018 380.87626861 321.4348941 377.73388672 321.45385742 C376.10754083 321.46371516 376.10754083 321.46371516 374.44833946 321.47377205 C368.71109698 321.50621519 362.97387192 321.53070478 357.23657227 321.55029297 C352.52210235 321.568096 347.80823159 321.60292388 343.09399414 321.65283203 C337.36239629 321.71340355 331.63135289 321.74381714 325.8994503 321.75346565 C323.73276984 321.76195427 321.56610156 321.78060612 319.3996067 321.81020927 C297.62766435 322.09175313 281.81238024 317.04135753 265.52685547 301.89526367 C248.70414084 284.17574992 245.95855111 262.43940658 245.65185547 239.20776367 C245.61858439 237.44537015 245.58408621 235.68299935 245.54833984 233.9206543 C245.46457946 229.66231922 245.39725646 225.4040256 245.33935547 221.14526367 C245.24960449 221.72791992 245.15985352 222.31057617 245.06738281 222.91088867 C243.07050672 235.56357305 240.69507066 247.46423778 235.33935547 259.14526367 C234.90647217 260.08958252 234.90647217 260.08958252 234.46484375 261.05297852 C229.71744398 271.13061188 223.56047733 279.69687982 216.33935547 288.14526367 C215.48277344 289.1565332 215.48277344 289.1565332 214.60888672 290.18823242 C196.04856706 310.27536501 168.03554532 320.5287439 141.33935547 322.14526367 C136.48196132 322.28161157 131.62765909 322.29221717 126.76855469 322.29052734 C125.34773166 322.29352766 123.92690944 322.29693217 122.50608826 322.30070496 C118.68132765 322.30946175 114.85658948 322.31187956 111.03181982 322.31252074 C108.63153322 322.31323615 106.23125216 322.31537969 103.83096695 322.31801796 C95.42653294 322.32724483 87.02211469 322.33135631 78.61767578 322.33056641 C70.83337228 322.32996678 63.04913833 322.3405029 55.2648524 322.35631007 C48.54081461 322.3694685 41.8167993 322.37474683 35.09274876 322.374111 C31.09497887 322.37385838 27.09727086 322.37657674 23.09951401 322.38728905 C-19.3244056 322.49306566 -19.3244056 322.49306566 -32.84814453 317.52026367 C-33.58242676 317.26156494 -34.31670898 317.00286621 -35.07324219 316.73632812 C-62.37502689 306.73156409 -82.72983872 287.01779257 -94.97705078 260.87963867 C-103.81182124 241.44216691 -104.10496567 222.42708452 -103.99775791 201.39696598 C-103.98249272 197.81167033 -103.98389065 194.22637494 -103.98309326 190.64105225 C-103.97942492 184.62987054 -103.96457964 178.61880469 -103.94189453 172.60766602 C-103.91297407 164.92942994 -103.90266071 157.25128652 -103.89821243 149.57300186 C-103.89421113 142.91669961 -103.88172009 136.26041686 -103.86786556 129.60412884 C-103.86380087 127.48968997 -103.86085821 125.37525175 -103.85807037 123.26081085 C-103.85219387 119.2994155 -103.83748259 115.33807804 -103.82177734 111.37670898 C-103.82065948 110.22520859 -103.81954163 109.07370819 -103.81838989 107.88731384 C-103.76397783 97.44773012 -103.49379218 86.94456049 -100.97314453 76.77026367 C-100.80016846 76.05966797 -100.62719238 75.34907227 -100.44897461 74.61694336 C-96.1281791 57.70931938 -88.36303307 42.13908728 -76.66064453 29.14526367 C-75.97357422 28.3640918 -75.28650391 27.58291992 -74.57861328 26.77807617 C-54.91442185 5.69105828 -27.63506581 -0.0106533 0 0 Z " fill="#1DA1AA" transform="translate(294.66064453125,484.854736328125)"/>
<path d="M0 0 C0.76270706 -0.00282738 1.52541412 -0.00565475 2.31123352 -0.00856781 C6.35202366 -0.02347717 10.39277888 -0.03275726 14.43359375 -0.03710938 C18.55024374 -0.04256591 22.66655833 -0.06655793 26.78310394 -0.09508133 C29.99899142 -0.11395387 33.21480225 -0.11892628 36.43074036 -0.12044525 C37.94539715 -0.12341986 39.4600544 -0.13126554 40.97465515 -0.14463043 C76.73295811 -0.43752117 106.43477095 12.4382057 131.90625 37.203125 C132.46602539 37.74026123 133.02580078 38.27739746 133.60253906 38.83081055 C151.26814978 56.05405581 164.08623099 79.8167527 170.78125 103.453125 C170.97235352 104.12456543 171.16345703 104.79600586 171.36035156 105.48779297 C174.64161035 117.94883473 175.31715018 130.51887007 175.28125 143.328125 C175.27993576 144.48081879 175.27993576 144.48081879 175.27859497 145.65679932 C175.23261739 157.91547324 174.38577312 169.38573528 170.90625 181.203125 C170.67019043 182.04407715 170.43413086 182.8850293 170.19091797 183.75146484 C160.75668542 216.77432009 139.44844079 248.46285178 111.90625 269.203125 C111.38337402 269.6062793 110.86049805 270.00943359 110.32177734 270.42480469 C101.40167012 277.2775118 92.12863474 282.53706868 81.90625 287.203125 C81.03613281 287.61304688 80.16601562 288.02296875 79.26953125 288.4453125 C74.13619178 290.69387206 68.83832368 292.07627039 63.40625 293.390625 C62.71797119 293.55788086 62.02969238 293.72513672 61.32055664 293.89746094 C51.04079505 296.24892155 40.78112036 296.34556976 30.27685547 296.31665039 C28.82712303 296.31636777 27.37739044 296.31652771 25.92765808 296.3170929 C22.02133728 296.31737795 18.11504764 296.3115286 14.20873404 296.30451894 C10.11548619 296.29823663 6.02223751 296.29767776 1.9289856 296.29649353 C-5.80907706 296.29339453 -13.54712547 296.28520055 -21.28518188 296.27514404 C-31.75087197 296.26184002 -42.216566 296.25647143 -52.68226242 296.25064182 C-69.15276894 296.24125961 -85.6232454 296.22133116 -102.09375 296.203125 C-102.09375 335.803125 -102.09375 375.403125 -102.09375 416.203125 C-102.42375 416.203125 -102.75375 416.203125 -103.09375 416.203125 C-103.13338867 415.46900391 -103.17302734 414.73488281 -103.21386719 413.97851562 C-104.00743202 399.97494623 -104.88037541 386.62932611 -109.09375 373.203125 C-109.35671875 372.22601562 -109.6196875 371.24890625 -109.890625 370.2421875 C-114.04056035 355.95231576 -121.91027057 342.00026687 -132.09375 331.203125 C-132.53944336 330.7179541 -132.98513672 330.2327832 -133.44433594 329.73291016 C-152.01020757 309.61882068 -175.771463 298.82917766 -203.09375 297.203125 C-209.27815868 297.02065583 -215.46711725 297.05917971 -221.65356445 297.0612793 C-223.51422202 297.05824246 -225.37487885 297.05471956 -227.23553467 297.05075073 C-231.22412001 297.04290222 -235.21269657 297.03773222 -239.20128822 297.03446007 C-245.51957005 297.02851371 -251.83779663 297.01193995 -258.15605164 296.99311829 C-260.32553956 296.98678208 -262.49502751 296.98045644 -264.6645155 296.97414112 C-266.29349712 296.9693924 -266.29349712 296.9693924 -267.95538747 296.96454775 C-282.64952931 296.92258636 -297.34364397 296.88949678 -312.0378418 296.87719727 C-321.97149397 296.86879747 -331.90500751 296.8462409 -341.83859032 296.8078416 C-347.08489135 296.78815563 -352.33098552 296.77565175 -357.57732582 296.78067589 C-362.51463883 296.78534728 -367.45155987 296.77138177 -372.38879395 296.74366379 C-374.19058635 296.73679538 -375.99241967 296.73657803 -377.79421043 296.74386406 C-398.33387179 296.81847345 -415.82137956 291.69347648 -431.09375 277.203125 C-441.20143264 266.8657223 -448.32751716 253.4229335 -451.09375 239.203125 C-451.26550247 238.41227509 -451.43725494 237.62142517 -451.61421204 236.80661011 C-452.31031976 231.57571289 -452.24110771 226.38914067 -452.23901367 221.11767578 C-452.24237228 219.90379684 -452.2457309 218.68991791 -452.24919128 217.43925476 C-452.25705021 214.11837454 -452.26036828 210.79755688 -452.26100707 207.4766717 C-452.26172014 205.39436612 -452.26385948 203.312067 -452.26650429 201.22976303 C-452.27575236 193.9428847 -452.27984046 186.65602462 -452.27905273 179.36914062 C-452.27845435 172.6153375 -452.28896031 165.86161487 -452.3047964 159.10783207 C-452.31796042 153.28245237 -452.32323284 147.45709864 -452.32259732 141.63170421 C-452.32234462 138.16487286 -452.32506702 134.69811286 -452.33577538 131.23129654 C-452.44519071 93.15587874 -446.92859412 60.17590701 -419.12890625 32.171875 C-401.65109642 15.12435438 -376.93314317 1.14081855 -352.00788879 1.05595398 C-351.30577874 1.05227729 -350.60366869 1.0486006 -349.88028258 1.0448125 C-347.53321799 1.03382113 -345.18619775 1.02993944 -342.83911133 1.02612305 C-341.15331381 1.01985451 -339.46751767 1.01320737 -337.78172302 1.00621033 C-332.24641882 0.98519804 -326.71111447 0.97480437 -321.17578125 0.96484375 C-319.26405002 0.96079387 -317.35231894 0.95667688 -315.440588 0.95249367 C-306.44908884 0.93344109 -297.45759785 0.91921527 -288.46608239 0.9108817 C-278.12395283 0.90113599 -267.78203882 0.87488678 -257.4399851 0.83438081 C-249.42523016 0.80408023 -241.41053647 0.78939933 -233.39572543 0.78610069 C-228.61977131 0.7837643 -223.84404739 0.77499103 -219.06815529 0.74963951 C-214.56268376 0.72611132 -210.0575899 0.72222331 -205.55207253 0.73240089 C-203.91319512 0.73289057 -202.27429753 0.7267417 -200.63547897 0.71284485 C-184.67123558 0.58523169 -169.54303457 3.12338958 -155.09375 10.203125 C-154.17335938 10.64398438 -153.25296875 11.08484375 -152.3046875 11.5390625 C-145.12144922 15.2015023 -139.10812341 19.86008074 -133.09375 25.203125 C-132.39507812 25.81800781 -131.69640625 26.43289062 -130.9765625 27.06640625 C-113.43813953 43.51308 -104.36351155 65.6692816 -102.09375 89.203125 C-101.92939453 87.35460937 -101.92939453 87.35460937 -101.76171875 85.46875 C-99.18794391 57.93242655 -90.55652471 36.534346 -68.8359375 18.30859375 C-48.4151894 2.97572696 -24.78269682 0.06270339 0 0 Z " fill="#FEBB30" transform="translate(643.09375,188.796875)"/>
<path d="M0 0 C20.48142975 -0.07041858 40.96283457 -0.12314776 61.44436073 -0.15543652 C70.95660093 -0.17083444 80.46876545 -0.19178671 89.98095703 -0.22631836 C98.28223203 -0.25643943 106.58345215 -0.27562624 114.88478029 -0.28226548 C119.27078644 -0.28613974 123.65663576 -0.29509257 128.04259109 -0.31719017 C146.21149968 -0.40512142 164.07470586 -0.42778969 182 3 C183.18565741 3.22457351 183.18565741 3.22457351 184.39526749 3.45368385 C211.51291953 8.69259825 232.79643449 23.55638992 252 43 C253.15048828 44.15435547 253.15048828 44.15435547 254.32421875 45.33203125 C268.99507026 60.730363 279.17791497 80.84605959 285.4375 101.0625 C285.66018555 101.76729492 285.88287109 102.47208984 286.11230469 103.19824219 C290.48375024 118.45451982 291.48103266 134.21973549 291.33618164 150.00146484 C291.31238808 152.76298972 291.31568225 155.52355305 291.32226562 158.28515625 C291.24592156 206.24471382 274.07537105 248.83806803 240.1953125 282.8125 C221.74272293 300.41497027 199.97710223 311.70919986 175.3125 317.75 C174.03028564 318.06650513 174.03028564 318.06650513 172.72216797 318.3894043 C163.14379471 320.62741922 153.54319389 321.14372166 143.73364258 321.20874023 C142.77262634 321.21852402 141.81161011 321.2283078 140.82147217 321.23838806 C137.67917199 321.2680065 134.53691314 321.28963043 131.39453125 321.30859375 C129.76818536 321.31845149 129.76818536 321.31845149 128.10898399 321.32850838 C122.37174151 321.36095152 116.63451645 321.38544111 110.8972168 321.4050293 C106.18274688 321.42283233 101.46887612 321.45766021 96.75463867 321.50756836 C91.02304082 321.56813988 85.29199742 321.59855347 79.56009483 321.60820198 C77.39341437 321.6166906 75.22674609 321.63534245 73.06025124 321.6649456 C51.28830888 321.94648946 35.47302477 316.89609386 19.1875 301.75 C2.59447815 284.27242367 -0.41661906 262.70406432 -0.6875 239.75 C-0.72040719 237.69010203 -0.75345452 235.63020631 -0.78662109 233.5703125 C-1.91012258 155.7283198 -0.74940981 77.84132945 0 0 Z " fill="#084C6A" transform="translate(541,485)"/>
<path d="M0 0 C0.76270706 -0.00282738 1.52541412 -0.00565475 2.31123352 -0.00856781 C6.35202366 -0.02347717 10.39277888 -0.03275726 14.43359375 -0.03710938 C18.55024374 -0.04256591 22.66655833 -0.06655793 26.78310394 -0.09508133 C29.99899142 -0.11395387 33.21480225 -0.11892628 36.43074036 -0.12044525 C37.94539715 -0.12341986 39.4600544 -0.13126554 40.97465515 -0.14463043 C76.73295811 -0.43752117 106.43477095 12.4382057 131.90625 37.203125 C132.46602539 37.74026123 133.02580078 38.27739746 133.60253906 38.83081055 C151.26814978 56.05405581 164.08623099 79.8167527 170.78125 103.453125 C170.97235352 104.12456543 171.16345703 104.79600586 171.36035156 105.48779297 C174.64161035 117.94883473 175.31715018 130.51887007 175.28125 143.328125 C175.28037384 144.09658752 175.27949768 144.86505005 175.27859497 145.65679932 C175.23261739 157.91547324 174.38577312 169.38573528 170.90625 181.203125 C170.67019043 182.04407715 170.43413086 182.8850293 170.19091797 183.75146484 C160.75668542 216.77432009 139.44844079 248.46285178 111.90625 269.203125 C111.38337402 269.6062793 110.86049805 270.00943359 110.32177734 270.42480469 C101.40167012 277.2775118 92.12863474 282.53706868 81.90625 287.203125 C81.03613281 287.61304688 80.16601562 288.02296875 79.26953125 288.4453125 C74.13619178 290.69387206 68.83832368 292.07627039 63.40625 293.390625 C62.71797119 293.55788086 62.02969238 293.72513672 61.32055664 293.89746094 C51.04079505 296.24892155 40.78112036 296.34556976 30.27685547 296.31665039 C28.82712303 296.31636777 27.37739044 296.31652771 25.92765808 296.3170929 C22.02133728 296.31737795 18.11504764 296.3115286 14.20873404 296.30451894 C10.11548619 296.29823663 6.02223751 296.29767776 1.9289856 296.29649353 C-5.80907706 296.29339453 -13.54712547 296.28520055 -21.28518188 296.27514404 C-30.10023805 296.26393831 -38.91529493 296.25846124 -47.73035645 296.25344861 C-65.85149569 296.24301665 -83.9726217 296.2254451 -102.09375 296.203125 C-102.14060452 269.68948371 -102.17580449 243.17584868 -102.19737434 216.66217422 C-102.20765867 204.34963847 -102.22166423 192.03712855 -102.24462891 179.72460938 C-102.26465027 168.98496728 -102.27748707 158.2453439 -102.28192699 147.50568366 C-102.28451964 141.82646093 -102.29055331 136.14729171 -102.30521011 130.46808624 C-102.31893269 125.10669652 -102.32294346 119.7453816 -102.31996536 114.38397598 C-102.32050904 112.43150295 -102.32439807 110.47902704 -102.33216095 108.52656937 C-102.45236026 76.69419546 -99.06026116 48.76392817 -76.15625 24.890625 C-54.83033039 4.44513326 -28.46386552 0.07201722 0 0 Z " fill="#F95F4B" transform="translate(643.09375,188.796875)"/>
<path d="M0 0 C0.33 0 0.66 0 1 0 C1 64.02 1 128.04 1 194 C0.67 194 0.34 194 0 194 C-0.05945801 192.89881836 -0.05945801 192.89881836 -0.12011719 191.77539062 C-0.91368202 177.77182123 -1.78662541 164.42620111 -6 151 C-6.26296875 150.02289062 -6.5259375 149.04578125 -6.796875 148.0390625 C-10.94681035 133.74919076 -18.81652057 119.79714187 -29 109 C-29.66854004 108.27224365 -29.66854004 108.27224365 -30.35058594 107.52978516 C-49.06555894 87.25416066 -72.57841243 76.98102724 -100 75 C-100 74.67 -100 74.34 -100 74 C-99.35675781 73.98541748 -98.71351563 73.97083496 -98.05078125 73.95581055 C-69.71789706 73.24092055 -43.99979672 69.45597427 -22.81640625 48.87890625 C-13.8830124 39.38826367 -8.15605909 28.25876344 -4 16 C-3.649375 14.99582031 -3.29875 13.99164063 -2.9375 12.95703125 C-2.05825254 10.18373823 -1.41537133 7.48124845 -0.875 4.625 C-0.70742188 3.75101562 -0.53984375 2.87703125 -0.3671875 1.9765625 C-0.18542969 0.99816406 -0.18542969 0.99816406 0 0 Z " fill="#FAF9F7" transform="translate(540,411)"/>
<path d="M0 0 C0.33 0 0.66 0 1 0 C1 12.21 1 24.42 1 37 C0.67 37 0.34 37 0 37 C-0.33 33.7 -0.66 30.4 -1 27 C-1.99 27.33 -2.98 27.66 -4 28 C-3.25577054 21.81494737 -2.37295916 15.65881247 -1.4375 9.5 C-1.29892578 8.5821875 -1.16035156 7.664375 -1.01757812 6.71875 C-0.67928688 4.47902869 -0.3400766 2.2394508 0 0 Z " fill="#D7DFE1" transform="translate(540,699)"/>
<path d="M0 0 C-0.33 6.27 -0.66 12.54 -1 19 C-1.66 18.67 -2.32 18.34 -3 18 C-3.39487974 15.3189744 -3.65171503 12.75856098 -3.8125 10.0625 C-3.87630859 9.32064453 -3.94011719 8.57878906 -4.00585938 7.81445312 C-4.14453125 5.66015625 -4.14453125 5.66015625 -4 2 C-1 0 -1 0 0 0 Z " fill="#FCEADA" transform="translate(543,260)"/>
<path d="M0 0 C6.93 0 13.86 0 21 0 C21 0.99 21 1.98 21 3 C20.40574219 2.93941406 19.81148438 2.87882812 19.19921875 2.81640625 C12.80300071 2.16982122 6.40328386 1.57215654 0 1 C0 0.67 0 0.34 0 0 Z " fill="#EDF6F7" transform="translate(440,485)"/>
<path d="M0 0 C-0.99 1.485 -0.99 1.485 -2 3 C-4.96528179 3.0562279 -7.68850026 2.95683804 -10.625 2.6875 C-11.42679688 2.62626953 -12.22859375 2.56503906 -13.0546875 2.50195312 C-15.03758124 2.34851492 -17.01898519 2.17604307 -19 2 C-19 1.67 -19 1.34 -19 1 C-16.58440932 0.63645961 -14.16805703 0.28389449 -11.75 -0.0625 C-11.06808594 -0.16626953 -10.38617187 -0.27003906 -9.68359375 -0.37695312 C-6.2150075 -0.86524925 -3.33088887 -1.22762141 0 0 Z " fill="#F5EBE7" transform="translate(707,483)"/>
<path d="M0 0 C0 1.98 0 3.96 0 6 C-0.66 6 -1.32 6 -2 6 C-2.66 6.66 -3.32 7.32 -4 8 C-4.1875 5.125 -4.1875 5.125 -4 2 C-1 0 -1 0 0 0 Z " fill="#FBF0E7" transform="translate(543,260)"/>
</svg>
