<svg width="1024" height="1024" viewBox="0 0 1024 1024" fill="none" xmlns="http://www.w3.org/2000/svg">
<g clip-path="url(#clip0_1_5)">
<path d="M0 0C337.92 0 675.84 0 1024 0C1024 337.92 1024 675.84 1024 1024C686.08 1024 348.16 1024 0 1024C0 686.08 0 348.16 0 0Z" fill="#F3F0E8"/>
<path d="M306.376 190.839C307.92 190.834 309.463 190.829 311.007 190.824C315.181 190.811 319.355 190.804 323.53 190.8C326.148 190.797 328.767 190.793 331.385 190.788C339.608 190.775 347.832 190.765 356.055 190.761C365.49 190.757 374.924 190.739 384.359 190.71C391.688 190.688 399.016 190.678 406.345 190.677C410.704 190.676 415.064 190.67 419.423 190.652C467.234 190.465 467.234 190.465 484 199C485.102 199.492 486.204 199.985 487.34 200.492C504.481 208.409 522.311 222.653 529.437 240.625C529.623 241.409 529.809 242.193 530 243C530.66 243 531.32 243 532 243C536.779 252.898 539.394 262.155 541 273C541.294 271.256 541.294 271.256 541.594 269.477C546.467 242.583 560.009 220.412 582.502 204.531C599.152 193.288 617.775 190.353 637.414 190.539C639.125 190.541 640.836 190.542 642.547 190.542C646.102 190.545 649.656 190.561 653.211 190.588C657.723 190.622 662.235 190.63 666.748 190.628C670.271 190.629 673.794 190.64 677.316 190.654C678.979 190.661 680.641 190.665 682.303 190.666C713.318 190.725 738.928 198.041 764.333 215.843C765.876 216.914 767.437 217.958 769 219C769 219.66 769 220.32 769 221C769.576 221.253 770.152 221.505 770.746 221.766C782.954 228.451 793.182 245.258 800 257C800.638 258.089 800.638 258.089 801.289 259.199C819.996 293.777 822.552 339.513 812 377C808.46 388.416 803.849 399.57 798 410C797.453 410.994 796.907 411.988 796.344 413.012C790.626 422.861 783.46 431.433 776 440C775.263 440.855 774.525 441.709 773.766 442.59C762.883 454.277 748.171 463.813 734 471C733.353 471.337 732.707 471.674 732.041 472.022C717.422 479.544 700.567 484.63 684 484C684 484.66 684 485.32 684 486C684.583 485.984 685.165 485.969 685.766 485.952C698.308 485.66 709.75 486.083 722 489C723.266 489.255 724.532 489.51 725.836 489.773C750.657 495 774.535 509.707 792 528C792 528.66 792 529.32 792 530C792.66 530 793.32 530 794 530C819.882 557.304 832.452 594.931 834 632C834.033 632.647 834.065 633.294 834.099 633.96C835.045 655.073 832.828 677.285 825 697C824.481 698.723 823.979 700.452 823.5 702.188C817.782 721.365 806.622 737.716 794 753C793.482 753.643 792.964 754.287 792.43 754.949C769.514 782.413 735.129 801.85 699.445 805.544C690.539 806.311 681.592 806.185 672.66 806.203C671.692 806.206 670.724 806.209 669.727 806.212C664.611 806.227 659.494 806.236 654.377 806.24C649.124 806.246 643.872 806.27 638.619 806.298C634.548 806.317 630.478 806.322 626.407 806.324C624.471 806.327 622.536 806.335 620.6 806.348C610.297 806.413 600.898 806.247 591 803C590.064 802.731 589.129 802.461 588.165 802.184C573.076 797.751 559.858 785.282 552 772C550.661 769.475 549.435 766.913 548.25 764.313C547.827 763.415 547.827 763.415 547.396 762.5C542.1 750.288 541.521 737.152 541.312 724.063C541.279 722.589 541.245 721.116 541.209 719.643C541.125 716.095 541.058 712.548 541 709C540.769 710.198 540.538 711.395 540.301 712.629C537.107 728.775 532.778 742.987 524 757C523.448 757.891 522.897 758.782 522.328 759.699C519.582 763.98 516.702 767.483 513 771C511.42 772.863 509.867 774.745 508.332 776.645C507.892 777.092 507.453 777.539 507 778C506.34 778 505.68 778 505 778C504.67 778.99 504.34 779.98 504 781C483.266 799.44 457.368 806.129 430.285 806.177C428.705 806.183 427.126 806.19 425.546 806.197C420.385 806.218 415.224 806.228 410.062 806.238C408.276 806.242 406.489 806.246 404.702 806.251C396.303 806.27 387.904 806.284 379.504 806.292C369.854 806.302 360.204 806.328 350.553 806.369C343.064 806.399 335.575 806.414 328.086 806.417C323.627 806.419 319.168 806.428 314.709 806.454C310.507 806.477 306.304 806.481 302.102 806.471C300.574 806.47 299.046 806.476 297.518 806.49C272.199 806.707 248.66 797.866 229 782C228.093 781.306 228.093 781.306 227.168 780.598C207.255 764.993 196.079 738.247 192.618 713.892C191.229 702.284 191.545 690.509 191.564 678.833C191.567 675.841 191.561 672.85 191.555 669.859C191.541 662.789 191.542 655.72 191.554 648.65C191.565 641.416 191.551 634.183 191.525 626.948C191.502 620.679 191.496 614.411 191.502 608.141C191.505 604.423 191.503 600.704 191.485 596.985C191.389 574.327 192.466 554.903 204 535C204.557 534.005 205.114 533.01 205.687 531.984C219.376 508.951 241.419 494.908 266.773 487.797C269.839 487.04 272.879 486.471 276 486C275.296 485.996 274.592 485.992 273.867 485.988C259.785 485.844 247.092 485.514 234 480C232.428 479.385 232.428 479.385 230.824 478.758C214.739 471.706 204.159 457.65 197.125 442C191.484 426.707 191.535 412.057 191.564 395.928C191.567 393.205 191.561 390.483 191.555 387.761C191.541 381.317 191.542 374.873 191.554 368.429C191.565 361.852 191.551 355.276 191.525 348.7C191.502 342.995 191.496 337.291 191.502 331.587C191.505 328.206 191.501 324.825 191.485 321.444C191.333 283.451 197.811 250.777 224.878 222.821C247.727 199.813 274.222 190.862 306.376 190.839Z" fill="#158C91"/>
<path d="M306.376 190.839C307.92 190.834 309.463 190.829 311.007 190.824C315.181 190.811 319.355 190.804 323.53 190.8C326.148 190.797 328.767 190.793 331.385 190.788C339.608 190.775 347.832 190.765 356.055 190.761C365.49 190.757 374.924 190.739 384.359 190.71C391.688 190.688 399.016 190.678 406.345 190.677C410.704 190.676 415.064 190.67 419.423 190.652C467.234 190.465 467.234 190.465 484 199C485.102 199.492 486.204 199.985 487.34 200.492C504.481 208.409 522.311 222.653 529.438 240.625C529.623 241.409 529.809 242.193 530 243C530.66 243 531.32 243 532 243C536.779 252.898 539.394 262.155 541 273C541.294 271.256 541.294 271.256 541.594 269.477C546.467 242.583 560.009 220.412 582.502 204.531C599.152 193.288 617.775 190.353 637.414 190.539C639.125 190.541 640.836 190.542 642.547 190.542C646.102 190.545 649.656 190.561 653.211 190.588C657.723 190.622 662.235 190.63 666.748 190.628C670.271 190.629 673.794 190.64 677.316 190.654C678.979 190.661 680.641 190.665 682.303 190.666C713.318 190.725 738.928 198.041 764.333 215.843C765.876 216.914 767.437 217.958 769 219C769 219.66 769 220.32 769 221C769.576 221.253 770.152 221.505 770.746 221.766C782.954 228.451 793.182 245.258 800 257C800.638 258.089 800.638 258.089 801.289 259.199C819.996 293.777 822.552 339.513 812 377C808.46 388.416 803.849 399.57 798 410C797.453 410.994 796.907 411.988 796.344 413.012C790.626 422.861 783.46 431.433 776 440C775.263 440.855 774.525 441.709 773.766 442.59C762.883 454.277 748.171 463.813 734 471C733.353 471.337 732.707 471.674 732.041 472.022C712.81 481.917 691.59 485.173 670.148 485.114C668.758 485.113 667.368 485.113 665.977 485.114C662.224 485.114 658.47 485.108 654.717 485.101C650.786 485.095 646.856 485.095 642.926 485.093C635.492 485.09 628.058 485.082 620.625 485.072C612.158 485.061 603.691 485.055 595.225 485.05C577.816 485.04 560.408 485.022 543 485C541.885 456.05 541.885 456.05 541.684 443.77C541.652 442.062 541.652 442.062 541.621 440.32C541.557 436.818 541.497 433.315 541.438 429.812C541.394 427.382 541.35 424.952 541.307 422.521C541.202 416.681 541.1 410.841 541 405C540.756 406.057 540.512 407.114 540.261 408.203C538.507 415.626 536.812 422.7 533.125 429.438C532.776 430.101 532.427 430.764 532.068 431.448C520.315 453.465 500.231 473.139 475.959 480.63C466.552 483.264 457.371 485.148 447.566 485.154C446.313 485.16 446.313 485.16 445.035 485.167C442.244 485.181 439.453 485.187 436.663 485.193C434.658 485.201 432.654 485.209 430.649 485.218C424.071 485.244 417.492 485.259 410.914 485.273C408.644 485.279 406.374 485.284 404.104 485.29C394.656 485.311 385.207 485.33 375.759 485.341C362.249 485.357 348.739 485.391 335.228 485.448C325.713 485.486 316.198 485.506 306.682 485.511C301.008 485.515 295.333 485.527 289.659 485.559C284.312 485.589 278.966 485.596 273.619 485.584C271.668 485.584 269.717 485.592 267.766 485.609C247.499 485.783 228.828 481.212 213.661 466.947C195.575 448.943 191.631 426.328 191.558 401.819C191.559 399.855 191.561 397.891 191.564 395.928C191.567 393.205 191.561 390.483 191.555 387.761C191.541 381.317 191.543 374.873 191.554 368.429C191.565 361.852 191.551 355.276 191.525 348.7C191.502 342.995 191.496 337.291 191.502 331.587C191.505 328.206 191.501 324.825 191.485 321.444C191.333 283.451 197.811 250.777 224.878 222.821C247.727 199.813 274.222 190.862 306.376 190.839Z" fill="#FDAF28"/>
<path d="M541 401C541.33 401 541.66 401 542 401C542.146 408.623 542.288 416.247 542.427 423.87C542.475 426.45 542.523 429.03 542.573 431.61C542.645 435.372 542.713 439.133 542.781 442.895C542.803 444.002 542.825 445.109 542.848 446.25C543.075 459.166 543.02 472.083 543 485C543.706 484.999 544.413 484.998 545.141 484.997C562.431 484.975 579.722 484.959 597.012 484.948C605.375 484.943 613.737 484.936 622.099 484.925C629.398 484.915 636.697 484.908 643.996 484.906C647.851 484.905 651.706 484.902 655.561 484.894C683.174 484.844 683.174 484.844 696.539 485.424C697.391 485.46 698.244 485.497 699.123 485.534C706.923 485.931 714.384 487.258 722 489C723.266 489.254 724.532 489.508 725.836 489.77C750.659 495.018 774.527 509.699 792 528C792 528.66 792 529.32 792 530C792.66 530 793.32 530 794 530C819.882 557.304 832.452 594.931 834 632C834.033 632.647 834.065 633.294 834.099 633.96C835.045 655.073 832.828 677.285 825 697C824.481 698.723 823.979 700.452 823.5 702.188C817.782 721.365 806.622 737.716 794 753C793.223 753.965 793.223 753.965 792.43 754.949C769.514 782.413 735.129 801.85 699.445 805.544C690.539 806.311 681.592 806.185 672.66 806.203C671.692 806.206 670.724 806.209 669.727 806.212C664.611 806.227 659.494 806.236 654.377 806.24C649.124 806.246 643.872 806.27 638.619 806.298C634.548 806.317 630.478 806.322 626.407 806.324C624.471 806.327 622.536 806.335 620.6 806.348C610.297 806.413 600.898 806.247 591 803C590.064 802.731 589.129 802.461 588.165 802.184C573.076 797.751 559.858 785.282 552 772C550.661 769.475 549.435 766.913 548.25 764.312C547.968 763.714 547.687 763.116 547.396 762.5C541.951 749.945 541.491 736.358 541.309 722.906C541.275 721.132 541.241 719.357 541.207 717.583C540.746 691.548 540.971 665.501 541.096 639.464C541.123 633.724 541.14 627.984 541.151 622.243C541.157 620.097 541.167 617.951 541.181 615.805C541.39 583.734 536.599 551.208 515 526C511 521.179 511 521.179 511 519C510.34 519 509.68 519 509 519C507.83 517.864 506.666 516.722 505.531 515.551C499.354 509.295 492.577 504.436 485 500C484.131 499.484 483.262 498.969 482.367 498.438C469.627 491.469 454.376 487.726 440 486C440 485.67 440 485.34 440 485C440.993 484.963 441.985 484.925 443.008 484.887C452.272 484.467 460.981 483.288 470 481C470.835 480.808 471.671 480.616 472.531 480.418C485.631 477.034 499.757 469.452 509.172 459.766C511 458 511 458 513 458C513.371 457.138 513.371 457.138 513.75 456.258C515.189 453.658 516.896 451.972 519 449.875C529.109 438.899 536.182 424.074 539.188 409.562C539.365 408.736 539.542 407.909 539.725 407.057C540.156 405.039 540.579 403.02 541 401Z" fill="#0A4E66"/>
<path d="M637.414 190.539C639.125 190.541 640.836 190.542 642.547 190.542C646.102 190.545 649.656 190.561 653.211 190.588C657.723 190.622 662.235 190.63 666.748 190.628C670.271 190.629 673.794 190.64 677.316 190.654C678.979 190.661 680.641 190.665 682.303 190.666C713.318 190.725 738.928 198.041 764.333 215.843C765.876 216.914 767.437 217.958 769 219C769 219.66 769 220.32 769 221C769.576 221.253 770.152 221.505 770.746 221.766C782.954 228.451 793.182 245.258 800 257C800.425 257.726 800.851 258.451 801.289 259.199C819.996 293.777 822.552 339.513 812 377C808.46 388.416 803.849 399.57 798 410C797.453 410.994 796.907 411.988 796.344 413.012C790.626 422.861 783.459 431.433 776 440C775.263 440.855 774.525 441.709 773.766 442.59C762.883 454.277 748.171 463.813 734 471C733.353 471.337 732.707 471.674 732.04 472.022C712.81 481.917 691.59 485.173 670.148 485.114C668.758 485.113 667.368 485.113 665.977 485.114C662.224 485.114 658.47 485.108 654.717 485.101C650.786 485.095 646.856 485.095 642.925 485.093C635.492 485.09 628.058 485.082 620.625 485.072C612.158 485.061 603.691 485.055 595.225 485.05C577.816 485.04 560.408 485.022 543 485C541.881 462.454 541.82 439.925 541.8 417.357C541.797 414.261 541.793 411.165 541.788 408.069C541.775 398.338 541.765 388.608 541.761 378.878C541.757 367.72 541.739 356.562 541.71 345.404C541.688 336.714 541.678 328.025 541.677 319.335C541.676 314.171 541.67 309.007 541.652 303.842C541.636 298.997 541.634 294.151 541.642 289.306C541.643 287.54 541.639 285.773 541.629 284.007C541.557 270.409 542.696 257.689 548.437 245.125C548.775 244.377 549.113 243.63 549.461 242.86C559.479 221.786 577.96 203.594 600.037 195.664C612.466 191.457 624.389 190.416 637.414 190.539Z" fill="#F6623F"/>
<path d="M541 401C541.33 401 541.66 401 542 401C542.146 408.623 542.288 416.247 542.427 423.87C542.475 426.45 542.523 429.03 542.573 431.61C542.645 435.372 542.713 439.133 542.781 442.895C542.803 444.002 542.825 445.109 542.848 446.25C543.232 468.136 542.991 490.031 542.781 511.918C542.759 514.368 542.736 516.818 542.714 519.268C542.656 525.615 542.596 531.962 542.536 538.309C542.475 544.827 542.415 551.344 542.355 557.861C542.238 570.574 542.12 583.287 542 596C541.67 596 541.34 596 541 596C540.902 594.958 540.804 593.917 540.703 592.844C538.253 568.655 531.066 544.75 515 526C511 521.179 511 521.179 511 519C510.34 519 509.68 519 509 519C507.83 517.864 506.666 516.722 505.531 515.551C499.354 509.295 492.577 504.436 485 500C484.131 499.484 483.262 498.969 482.367 498.438C469.627 491.469 454.376 487.726 440 486C440 485.67 440 485.34 440 485C440.993 484.963 441.985 484.925 443.008 484.887C452.272 484.467 460.981 483.288 470 481C470.835 480.808 471.671 480.616 472.531 480.418C485.631 477.034 499.757 469.452 509.172 459.766C511 458 511 458 513 458C513.371 457.138 513.371 457.138 513.75 456.258C515.189 453.658 516.896 451.972 519 449.875C529.109 438.899 536.182 424.074 539.188 409.562C539.365 408.736 539.542 407.909 539.725 407.057C540.156 405.039 540.579 403.02 541 401Z" fill="#F3F0E8"/>
<path d="M259 485C265.93 485 272.86 485 280 485C276.375 486.812 274.627 487.319 270.75 487.625C269.858 487.7 268.966 487.775 268.047 487.852C267.371 487.901 266.696 487.95 266 488C266 487.34 266 486.68 266 486C263.69 486 261.38 486 259 486C259 485.67 259 485.34 259 485Z" fill="#382F11"/>
<path d="M541 401C541.33 401 541.66 401 542 401C542 405.95 542 410.9 542 416C540.68 416 539.36 416 538 416C538.99 411.05 539.98 406.1 541 401Z" fill="#150B07"/>
<path d="M695.25 480.813C696.513 480.84 697.777 480.867 699.078 480.895C700.042 480.929 701.007 480.964 702 481C702 481.33 702 481.66 702 482C695.88 483.405 690.283 484.233 684 484C687.575 480.56 690.418 480.678 695.25 480.813Z" fill="#F8774A"/>
<path d="M540 258C541.98 258.495 541.98 258.495 544 259C543.67 261.97 543.34 264.94 543 268C541 264 541 264 541 260C540.34 259.67 539.68 259.34 539 259C539.33 258.67 539.66 258.34 540 258Z" fill="#1E0F0C"/>
<path d="M247 205C247.66 205.33 248.32 205.66 249 206C244.25 210.875 244.25 210.875 242 212C241.34 211.34 240.68 210.68 240 210C244.75 206.125 244.75 206.125 247 205Z" fill="#EBB82C"/>
</g>
<defs>
<clipPath id="clip0_1_5">
<rect width="1024" height="1024" fill="white"/>
</clipPath>
</defs>
</svg>
