<?xml version="1.0" encoding="UTF-8"?>
<svg version="1.1" xmlns="http://www.w3.org/2000/svg" width="1024" height="1024">
<path d="M0 0 C337.92 0 675.84 0 1024 0 C1024 337.92 1024 675.84 1024 1024 C686.08 1024 348.16 1024 0 1024 C0 686.08 0 348.16 0 0 Z " fill="#090C0D" transform="translate(0,0)"/>
<path d="M0 0 C1.41094136 -0.00271686 2.8218813 -0.00628166 4.2328186 -0.01062012 C8.03741225 -0.01967471 11.8418964 -0.0162258 15.64649177 -0.00986195 C19.66177624 -0.00475285 23.67705214 -0.0095081 27.69233704 -0.01263428 C34.44643814 -0.01626519 41.20049541 -0.01150356 47.95458984 -0.00195312 C55.69842958 0.00887232 63.44216347 0.00544559 71.18600053 -0.00560594 C77.88379099 -0.01477303 84.58155013 -0.01591704 91.27934486 -0.0107286 C95.25719252 -0.00765258 99.23499105 -0.0070748 103.21283531 -0.01380157 C141.51948092 -0.06954965 182.78617757 -0.11675387 211.95825195 28.54785156 C212.84254883 29.44246094 213.7268457 30.33707031 214.63793945 31.25878906 C215.74782227 32.35320312 215.74782227 32.35320312 216.88012695 33.46972656 C228.3503674 45.47554244 235.40148409 62.17035573 238.63793945 78.25878906 C238.86868164 77.11023438 239.09942383 75.96167969 239.3371582 74.77832031 C243.55416655 54.40455468 250.8199931 38.10268629 265.63793945 23.25878906 C266.32243164 22.56269531 267.00692383 21.86660156 267.7121582 21.14941406 C284.46620397 5.16958482 305.73374346 -0.06328812 328.20825195 -0.04199219 C329.93391012 -0.04589044 331.65956735 -0.05022738 333.38522339 -0.05497742 C337.00123193 -0.06241888 340.61714287 -0.06216714 344.2331543 -0.05688477 C347.8947385 -0.05228113 351.55598849 -0.05906515 355.2175293 -0.07739258 C402.83598868 -0.31373765 440.85614973 5.04794488 476.3293457 39.90332031 C504.98902745 69.70449721 514.74098958 109.37334712 514.1703186 149.69642639 C513.22889893 188.30265796 497.26915694 223.04076108 471.63793945 251.25878906 C470.99727539 251.98324219 470.35661133 252.70769531 469.6965332 253.45410156 C447.91420679 276.74705912 417.04975488 290.87373827 385.63793945 294.25878906 C386.33653076 294.29842773 387.03512207 294.33806641 387.75488281 294.37890625 C424.02910256 296.53563903 454.31409883 306.10879235 481.41137695 331.22753906 C483.24836419 332.90338706 485.11526376 334.42274018 487.07543945 335.94628906 C513.24210995 358.2957041 527.15746811 397.83748703 530.2277832 431.02050781 C531.64134971 449.86203959 531.26974323 468.70058487 527.63793945 487.25878906 C527.4987207 487.99452148 527.35950195 488.73025391 527.21606445 489.48828125 C521.70216527 517.83636017 508.55474186 543.55358027 489.63793945 565.25878906 C488.79618164 566.23460937 487.95442383 567.21042969 487.0871582 568.21582031 C464.73693151 593.65660033 431.70860605 612.40431046 397.63793945 615.25878906 C394.22844564 615.39363573 390.82350339 615.40575993 387.41162109 615.40405273 C385.94144783 615.40909065 385.94144783 615.40909065 384.4415741 615.41423035 C381.22706813 615.42366803 378.01261463 615.42567964 374.7980957 615.42675781 C372.54804971 615.4299747 370.29800393 615.4333391 368.04795837 615.43684387 C363.34170039 615.44281668 358.63546072 615.44468561 353.92919922 615.4440918 C347.916214 615.44399012 341.90334671 615.45765598 335.89038944 615.47486401 C331.24653082 615.48601186 326.60270051 615.48801017 321.95882988 615.48748207 C319.74259471 615.48865745 317.52635869 615.49305429 315.3101368 615.50081444 C312.20455902 615.5106734 309.09923469 615.50771333 305.99365234 615.50170898 C305.08996918 615.50732849 304.18628601 615.512948 303.25521851 615.51873779 C285.45226156 615.4318045 270.46526773 608.72204286 257.51293945 596.69628906 C244.40080609 583.04896658 238.76169999 564.77363299 238.3215332 546.13769531 C238.30075211 545.39293442 238.27997101 544.64817352 238.25856018 543.88084412 C238.19375736 541.52774281 238.1345058 539.17454063 238.07543945 536.82128906 C238.03218815 535.21515931 237.98857188 533.60903933 237.94458008 532.00292969 C237.83814824 528.08831657 237.73669095 524.17360315 237.63793945 520.25878906 C237.40308838 521.36851074 237.1682373 522.47823242 236.92626953 523.62158203 C232.39935849 544.77941031 224.91110121 563.73345188 210.63793945 580.25878906 C210.03594727 581.00515625 209.43395508 581.75152344 208.8137207 582.52050781 C191.66739117 603.11767096 165.82265285 613.50858675 139.6496563 616.04592133 C133.72386655 616.46475534 127.78885286 616.41550977 121.85107422 616.41992188 C120.3829079 616.42456053 118.91474277 616.42958657 117.44657898 616.43496704 C113.4832123 616.44799555 109.51986249 616.45451763 105.55647779 616.4589777 C103.07009426 616.46192503 100.58371517 616.4660329 98.09733391 616.47048187 C90.28851552 616.48413406 82.47970748 616.49381082 74.67087799 616.49768376 C65.71211147 616.50215365 56.75349834 616.51966136 47.79477841 616.54868436 C40.83382478 616.57043802 33.87291387 616.58039534 26.91192669 616.58172488 C22.77153687 616.58276354 18.63129165 616.58846704 14.49093819 616.60654449 C-27.46568737 616.77934442 -27.46568737 616.77934442 -44.17456055 610.07128906 C-44.9524292 609.77085693 -45.73029785 609.4704248 -46.53173828 609.16088867 C-72.63630735 598.73997258 -92.63983072 579.16954878 -103.79174805 553.47753906 C-108.36002216 541.97557774 -111.46070526 528.27397476 -111.50923157 515.89892578 C-111.51638687 514.64037277 -111.52354218 513.38181976 -111.53091431 512.08512878 C-111.53375409 510.70291163 -111.53646588 509.3206942 -111.5390625 507.93847656 C-111.54533398 506.47263938 -111.55198138 505.00680376 -111.55897522 503.54096985 C-111.57994301 498.73858735 -111.59037331 493.93620482 -111.6003418 489.13378906 C-111.60439259 487.47425317 -111.6085096 485.81471745 -111.61269188 484.15518188 C-111.63173046 476.35330418 -111.64596222 468.55143583 -111.65430385 460.74953938 C-111.66406044 451.77478755 -111.69034416 442.80028339 -111.73080474 433.82561874 C-111.76107912 426.86907124 -111.77578354 419.91259425 -111.77908486 412.95598221 C-111.78142314 408.81061027 -111.79022224 404.66550328 -111.81554604 400.52020264 C-111.83903 396.61305886 -111.84297963 392.70635067 -111.83278465 388.79915428 C-111.83229402 387.37628914 -111.83847264 385.95340105 -111.8523407 384.53060341 C-111.96835069 371.90773889 -109.51977553 360.31116288 -103.67456055 349.07128906 C-103.33134766 348.40258789 -102.98813477 347.73388672 -102.63452148 347.04492188 C-99.29634184 340.76962663 -95.20432515 335.46230197 -90.36206055 330.25878906 C-89.70512207 329.53248291 -89.70512207 329.53248291 -89.03491211 328.79150391 C-73.24312319 311.43390952 -51.66136164 299.78479605 -28.36206055 296.25878906 C-29.68077148 296.23300781 -30.99948242 296.20722656 -32.3581543 296.18066406 C-52.31570888 295.62550871 -73.62754672 292.73514286 -88.63549805 278.09082031 C-89.20526367 277.48625 -89.7750293 276.88167969 -90.36206055 276.25878906 C-91.03495117 275.58203125 -91.7078418 274.90527344 -92.40112305 274.20800781 C-106.12970706 259.73386399 -111.67725525 240.73184333 -111.63671875 221.22192383 C-111.64182968 219.9425444 -111.64694061 218.66316498 -111.65220642 217.34501648 C-111.66551817 213.85681931 -111.66618317 210.36873103 -111.66364312 206.88051343 C-111.66256665 203.95154782 -111.66747468 201.02260363 -111.67224854 198.09364265 C-111.6833198 191.16828753 -111.68379659 184.24298663 -111.67773438 177.31762695 C-111.67171578 170.22009434 -111.68395702 163.12276104 -111.70530444 156.02526242 C-111.72304922 149.8957506 -111.72890117 143.76630143 -111.7256667 137.63676494 C-111.72387178 133.99215362 -111.72630605 130.347684 -111.74038124 126.70309639 C-111.85638321 93.79489698 -107.65651817 62.36890092 -84.36206055 37.25878906 C-83.55381836 36.35902344 -82.74557617 35.45925781 -81.9128418 34.53222656 C-60.70876742 12.02864987 -30.65627112 -0.0956681 0 0 Z " fill="#199296" transform="translate(303.362060546875,189.7412109375)"/>
<path d="M0 0 C1.41094136 -0.00271686 2.8218813 -0.00628166 4.2328186 -0.01062012 C8.03741225 -0.01967471 11.8418964 -0.0162258 15.64649177 -0.00986195 C19.66177624 -0.00475285 23.67705214 -0.0095081 27.69233704 -0.01263428 C34.44643814 -0.01626519 41.20049541 -0.01150356 47.95458984 -0.00195312 C55.69842958 0.00887232 63.44216347 0.00544559 71.18600053 -0.00560594 C77.88379099 -0.01477303 84.58155013 -0.01591704 91.27934486 -0.0107286 C95.25719252 -0.00765258 99.23499105 -0.0070748 103.21283531 -0.01380157 C141.51948092 -0.06954965 182.78617757 -0.11675387 211.95825195 28.54785156 C212.84254883 29.44246094 213.7268457 30.33707031 214.63793945 31.25878906 C215.74782227 32.35320312 215.74782227 32.35320312 216.88012695 33.46972656 C228.3503674 45.47554244 235.40148409 62.17035573 238.63793945 78.25878906 C238.86868164 77.11023438 239.09942383 75.96167969 239.3371582 74.77832031 C243.55416655 54.40455468 250.8199931 38.10268629 265.63793945 23.25878906 C266.32243164 22.56269531 267.00692383 21.86660156 267.7121582 21.14941406 C284.46620397 5.16958482 305.73374346 -0.06328812 328.20825195 -0.04199219 C329.93391012 -0.04589044 331.65956735 -0.05022738 333.38522339 -0.05497742 C337.00123193 -0.06241888 340.61714287 -0.06216714 344.2331543 -0.05688477 C347.8947385 -0.05228113 351.55598849 -0.05906515 355.2175293 -0.07739258 C402.83598868 -0.31373765 440.85614973 5.04794488 476.3293457 39.90332031 C504.98902745 69.70449721 514.74098958 109.37334712 514.1703186 149.69642639 C513.22889893 188.30265796 497.26915694 223.04076108 471.63793945 251.25878906 C470.99727539 251.98324219 470.35661133 252.70769531 469.6965332 253.45410156 C446.1999437 278.58020846 411.32349216 293.65393994 377.19106102 295.43906021 C373.50151485 295.50242818 369.81698334 295.50655177 366.12695312 295.48583984 C364.7260387 295.48527402 363.32512368 295.48559561 361.92420959 295.48672485 C358.16471518 295.48729272 354.40535148 295.47563151 350.64588714 295.46157694 C346.7008061 295.44897385 342.75572123 295.4478916 338.81062317 295.44552612 C331.35950806 295.43933925 323.90845247 295.42296671 316.45736343 295.40282714 C306.37494046 295.37617377 296.29250092 295.36547291 286.21005154 295.35382271 C270.35263636 295.33508373 254.49534672 295.29521961 238.63793945 295.25878906 C238.14293945 261.10378906 238.14293945 261.10378906 237.63793945 226.25878906 C235.32793945 231.86878906 233.01793945 237.47878906 230.63793945 243.25878906 C214.61545877 269.08607135 192.31344147 285.50643667 162.8293457 292.96972656 C150.95022183 295.52716665 138.95995824 295.41814071 126.87207031 295.43579102 C124.97701903 295.44206564 123.08196895 295.44871331 121.18692017 295.45570374 C114.99221636 295.47662628 108.79751265 295.4870945 102.6027832 295.49707031 C100.46039887 295.50112217 98.31801466 295.50523922 96.17563057 295.50942039 C86.10720144 295.5284455 76.03877952 295.54268256 65.9703359 295.55103236 C54.39044612 295.5607973 42.81074785 295.58710886 31.2309255 295.62753326 C22.2513377 295.65779331 13.27180452 295.67251055 4.29216677 295.67581338 C-1.05767471 295.67815233 -6.40731096 295.68696174 -11.75709724 295.71227455 C-16.79612464 295.73573449 -21.83481422 295.73971725 -26.87388229 295.72951317 C-28.70991459 295.72902205 -30.54596456 295.7352154 -32.38194466 295.74906921 C-47.03305799 295.85332351 -61.79644039 294.60104273 -74.92456055 287.44628906 C-75.58456055 287.10009521 -76.24456055 286.75390137 -76.92456055 286.3972168 C-82.03709311 283.62898289 -86.36188207 280.50332233 -90.36206055 276.25878906 C-91.03495117 275.58203125 -91.7078418 274.90527344 -92.40112305 274.20800781 C-106.12970706 259.73386399 -111.67725525 240.73184333 -111.63671875 221.22192383 C-111.64182968 219.9425444 -111.64694061 218.66316498 -111.65220642 217.34501648 C-111.66551817 213.85681931 -111.66618317 210.36873103 -111.66364312 206.88051343 C-111.66256665 203.95154782 -111.66747468 201.02260363 -111.67224854 198.09364265 C-111.6833198 191.16828753 -111.68379659 184.24298663 -111.67773438 177.31762695 C-111.67171578 170.22009434 -111.68395702 163.12276104 -111.70530444 156.02526242 C-111.72304922 149.8957506 -111.72890117 143.76630143 -111.7256667 137.63676494 C-111.72387178 133.99215362 -111.72630605 130.347684 -111.74038124 126.70309639 C-111.85638321 93.79489698 -107.65651817 62.36890092 -84.36206055 37.25878906 C-83.55381836 36.35902344 -82.74557617 35.45925781 -81.9128418 34.53222656 C-60.70876742 12.02864987 -30.65627112 -0.0956681 0 0 Z " fill="#FEB02B" transform="translate(303.362060546875,189.7412109375)"/>
<path d="M0 0 C0.33 0 0.66 0 1 0 C1 23.76 1 47.52 1 72 C12.60414063 71.97679687 24.20828125 71.95359375 36.1640625 71.9296875 C43.52864673 71.91946484 50.89322579 71.90975369 58.2578125 71.90234375 C69.93947107 71.89049547 81.62110071 71.87659771 93.30273438 71.84912109 C101.81195295 71.82911601 110.32114794 71.81626674 118.83038938 71.81182301 C123.33123722 71.80922763 127.83201766 71.80317624 132.33284378 71.78853989 C136.57960638 71.7748432 140.82627458 71.77080147 145.07305717 71.77378464 C146.62168709 71.77323983 148.17032056 71.76933502 149.7189312 71.76158905 C184.0005236 71.59870212 214.9230004 82.782801 241 105 C241.52577637 105.44069824 242.05155273 105.88139648 242.59326172 106.33544922 C250.89617124 113.34858639 257.67598816 121.17500764 264 130 C264.39815918 130.55526367 264.79631836 131.11052734 265.20654297 131.68261719 C290.41166933 167.46649889 298.20949395 213.99735584 291.33984375 256.8059082 C290.9200645 259.20994803 290.46868617 261.60505405 290 264 C289.86078125 264.73573242 289.7215625 265.47146484 289.578125 266.22949219 C284.06422581 294.57757111 270.91680241 320.29479121 252 342 C251.15824219 342.97582031 250.31648438 343.95164062 249.44921875 344.95703125 C227.09899206 370.39781127 194.0706666 389.1455214 160 392 C156.59050618 392.13484667 153.18556393 392.14697086 149.77368164 392.14526367 C148.30350838 392.15030159 148.30350838 392.15030159 146.80363464 392.15544128 C143.58912868 392.16487897 140.37467518 392.16689057 137.16015625 392.16796875 C134.91011026 392.17118564 132.66006448 392.17455004 130.41001892 392.17805481 C125.70376094 392.18402762 120.99752127 392.18589654 116.29125977 392.18530273 C110.27827454 392.18520106 104.26540726 392.19886691 98.25244999 392.21607494 C93.60859137 392.2272228 88.96476105 392.22922111 84.32089043 392.22869301 C82.10465525 392.22986839 79.88841924 392.23426523 77.67219734 392.24202538 C74.56661957 392.25188434 71.46129523 392.24892426 68.35571289 392.24291992 C67.45202972 392.24853943 66.54834656 392.25415894 65.61727905 392.25994873 C47.81432211 392.17301544 32.82732827 385.4632538 19.875 373.4375 C6.67918473 359.70308003 1.10521752 341.35187058 0.67919922 322.60961914 C0.65803669 321.79242086 0.63687416 320.97522259 0.61507034 320.13326073 C0.54750739 317.41316092 0.48781212 314.69297337 0.4296875 311.97265625 C0.39755472 310.54247005 0.39755472 310.54247005 0.3647728 309.08339119 C0.00735549 292.78218128 -0.05251431 276.48810478 0.0078125 260.18359375 C0.01164696 259.05061481 0.01548141 257.91763588 0.01943207 256.75032425 C0.05594229 246.26828239 0.10191458 235.78632149 0.17138672 225.30444336 C0.2093413 219.47652021 0.23212832 213.64869393 0.24569321 207.82066536 C0.25362308 205.6453377 0.2670473 203.4700214 0.28662491 201.29476738 C0.44417584 183.55479204 -0.76421408 166.60937248 -6.6875 149.75 C-7.03490234 148.7391333 -7.38230469 147.7282666 -7.74023438 146.68676758 C-17.78522799 118.35038357 -37.33855142 95.72620543 -64.5625 82.75 C-75.11226383 78.08229874 -85.69081772 75.20830187 -97 73 C-97 72.67 -97 72.34 -97 72 C-96.00540771 71.86537354 -96.00540771 71.86537354 -94.99072266 71.72802734 C-70.75347987 68.3660467 -49.98901188 63.2118255 -31 47 C-30.20207031 46.34644531 -29.40414062 45.69289063 -28.58203125 45.01953125 C-14.65184239 33.16267283 -5.01951989 17.56831962 0 0 Z " fill="#0B4F6B" transform="translate(541,413)"/>
<path d="M0 0 C1.72565817 -0.00389825 3.4513154 -0.0082352 5.17697144 -0.01298523 C8.79297998 -0.0204267 12.40889091 -0.02017495 16.02490234 -0.01489258 C19.68648655 -0.01028895 23.34773654 -0.01707296 27.00927734 -0.03540039 C74.62773673 -0.27174546 112.64789778 5.08993707 148.12109375 39.9453125 C176.7807755 69.7464894 186.53273763 109.41533931 185.96206665 149.73841858 C185.02064698 188.34465015 169.06090499 223.08275327 143.4296875 251.30078125 C142.78902344 252.02523437 142.14835938 252.7496875 141.48828125 253.49609375 C117.99169175 278.62220065 83.1152402 293.69593213 48.98280907 295.4810524 C45.2932629 295.54442037 41.60873138 295.54854396 37.91870117 295.52783203 C36.51778674 295.52726621 35.11687173 295.5275878 33.71595764 295.52871704 C29.95646323 295.5292849 26.19709953 295.5176237 22.43763518 295.50356913 C18.49255415 295.49096604 14.54746928 295.48988379 10.60237122 295.48751831 C3.15125611 295.48133144 -4.29979948 295.4649589 -11.75088853 295.44481933 C-20.24195112 295.42237279 -28.73301673 295.411445 -37.22410166 295.40142846 C-54.67287289 295.38058982 -72.12158638 295.34546886 -89.5703125 295.30078125 C-90.50560309 245.44415924 -90.65906584 195.60204145 -90.6328125 145.73828125 C-90.63238827 144.90903515 -90.63196404 144.07978905 -90.63152695 143.22541428 C-90.62027108 121.58385893 -90.59987332 99.94231941 -90.5703125 78.30078125 C-90.2403125 78.30078125 -89.9103125 78.30078125 -89.5703125 78.30078125 C-89.22419922 76.57794922 -89.22419922 76.57794922 -88.87109375 74.8203125 C-84.65408541 54.44654687 -77.38825886 38.14467848 -62.5703125 23.30078125 C-61.88582031 22.6046875 -61.20132813 21.90859375 -60.49609375 21.19140625 C-43.74204798 5.21157701 -22.47450849 -0.02129593 0 0 Z " fill="#F85F3F" transform="translate(631.5703125,189.69921875)"/>
<path d="M0 0 C0.33 0 0.66 0 1 0 C1 59.07 1 118.14 1 179 C0.67 179 0.34 179 0 179 C-0.12375 178.05125 -0.2475 177.1025 -0.375 176.125 C-4.99018787 144.43377872 -19.25253651 113.9542842 -45 94 C-61.01640753 82.98871983 -78.03603274 76.70302319 -97 73 C-97 72.67 -97 72.34 -97 72 C-96.00540771 71.86537354 -96.00540771 71.86537354 -94.99072266 71.72802734 C-70.75347987 68.3660467 -49.98901188 63.2118255 -31 47 C-30.20207031 46.34644531 -29.40414062 45.69289063 -28.58203125 45.01953125 C-14.65184239 33.16267283 -5.01951989 17.56831962 0 0 Z " fill="#090B0C" transform="translate(541,413)"/>
<path d="M0 0 C0.33 0 0.66 0 1 0 C1 14.19 1 28.38 1 43 C0.67 43 0.34 43 0 43 C-0.33 34.75 -0.66 26.5 -1 18 C-1.33 18 -1.66 18 -2 18 C-1.48758893 11.97099313 -0.930215 5.97995357 0 0 Z " fill="#080504" transform="translate(541,703)"/>
<path d="M0 0 C2 0 2 0 3.69140625 1.6796875 C4.30886719 2.40414063 4.92632812 3.12859375 5.5625 3.875 C6.18253906 4.59429687 6.80257812 5.31359375 7.44140625 6.0546875 C9 8 9 8 10 10 C6.4628562 9.43867066 5.00738321 8.30442253 2.75 5.5625 C1.96882812 4.63630859 1.96882812 4.63630859 1.171875 3.69140625 C0 2 0 2 0 0 Z " fill="#1A110D" transform="translate(205,458)"/>
</svg>
